<svg width="108" height="108" viewBox="0 0 108 108" fill="none" xmlns="http://www.w3.org/2000/svg">
<rect width="108" height="108" rx="24" fill="#EEEBFF"/>
<g clip-path="url(#clip0_0_33)">
<path d="M42.9168 72.0494C42.8995 71.9644 42.8743 71.8808 42.8411 71.7997C42.8079 71.7201 42.7667 71.643 42.7189 71.5713C42.6711 71.4983 42.6153 71.4305 42.5542 71.3694C42.4931 71.3083 42.4254 71.2526 42.3523 71.2047C42.2806 71.1569 42.2036 71.1158 42.1226 71.0826C42.0429 71.0494 41.9592 71.0228 41.8742 71.0069C41.7029 70.9723 41.5263 70.9723 41.3563 71.0069C41.2713 71.0228 41.1876 71.0494 41.1066 71.0826C41.0269 71.1158 40.9498 71.1569 40.8781 71.2047C40.8051 71.2526 40.7373 71.3083 40.6762 71.3694C40.6152 71.4305 40.5594 71.4983 40.5116 71.5713C40.4624 71.643 40.4226 71.7201 40.3894 71.7997C40.3562 71.8808 40.3296 71.9644 40.3137 72.0494C40.2964 72.1344 40.2871 72.2221 40.2871 72.3084C40.2871 72.3947 40.2964 72.4824 40.3137 72.5674C40.3296 72.6524 40.3562 72.7361 40.3894 72.8158C40.4226 72.8968 40.4624 72.9738 40.5116 73.0455C40.5594 73.1186 40.6152 73.1863 40.6762 73.2474C40.7373 73.3085 40.8051 73.3643 40.8781 73.4121C40.9498 73.46 41.0269 73.5012 41.1066 73.5344C41.1876 73.5676 41.2713 73.5942 41.3563 73.6101C41.4413 73.6274 41.5289 73.6367 41.6152 73.6367C41.7016 73.6367 41.7892 73.6274 41.8742 73.6101C41.9592 73.5942 42.0429 73.5676 42.1226 73.5344C42.2036 73.5012 42.2806 73.4599 42.3523 73.4121C42.4254 73.3643 42.4931 73.3085 42.5542 73.2474C42.6153 73.1863 42.6711 73.1186 42.7189 73.0455C42.7667 72.9738 42.8079 72.8968 42.8411 72.8158C42.8743 72.7361 42.8995 72.6524 42.9168 72.5674C42.9341 72.4824 42.9434 72.3947 42.9434 72.3084C42.9434 72.2221 42.9341 72.1344 42.9168 72.0494Z" fill="#70908B"/>
<path d="M81.0928 72.4586C81.0876 72.4454 81.0823 72.4322 81.0768 72.4192C79.8543 69.5588 76.9875 68.5016 73.5946 69.6604L64.3418 72.2192C63.8069 70.5991 62.4725 69.2205 60.5858 68.5204C60.5741 68.5161 60.5624 68.5119 60.5506 68.5079L50.3797 65.0558C49.5331 63.9616 46.8814 61.1616 41.9165 61.1616C38.4467 61.1616 35.3773 63.5419 33.6213 66.1364H21.3281C20.5946 66.1364 20 66.731 20 67.4645V84.2091C20 84.9426 20.5946 85.5372 21.3281 85.5372H29.2248C29.9583 85.5372 30.5529 84.9426 30.5529 84.2091V83.0624H34.2561C34.9896 83.0624 35.5842 82.4678 35.5842 81.7343V81.352C37.743 81.5404 38.453 81.9498 40.4356 83.0931C41.9603 83.9723 44.2647 85.3011 48.4146 87.167C48.4338 87.1756 48.4534 87.1838 48.4729 87.1915C49.2694 87.5048 50.8263 87.997 52.7459 87.997C54.0819 87.997 55.594 87.7584 57.1461 87.0549L77.598 79.7321C77.6344 79.7191 77.6702 79.7045 77.7053 79.6883C79.6599 78.789 82.5726 76.2546 81.0928 72.4586ZM27.8966 82.8808H22.6562V68.7925H27.8966V82.8808ZM32.928 80.406H30.5529V68.7925H32.928V80.406ZM76.644 77.2521L56.2012 84.5715C56.1833 84.5779 56.159 84.5875 56.1413 84.5946C56.1234 84.6019 56.1055 84.6097 56.0878 84.6178C53.2407 85.9262 50.5344 85.1429 49.4737 84.7305C45.4652 82.9268 43.3257 81.6931 41.7625 80.7917C39.5892 79.5385 38.542 78.9344 35.5842 78.6902V67.9932C36.8431 65.9299 39.2845 63.8177 41.9166 63.8177C46.4304 63.8177 48.343 66.7536 48.4182 66.872C48.5803 67.1358 48.8296 67.3346 49.1227 67.4341L59.678 71.0166C61.3638 71.6493 62.2547 73.093 61.8452 74.5326C61.6562 75.1975 61.2196 75.7489 60.6158 76.0854C60.0172 76.4188 59.3253 76.5013 58.6657 76.3188L46.7666 72.548C46.067 72.3264 45.3208 72.7136 45.0993 73.4129C44.8776 74.1122 45.2649 74.8586 45.9642 75.0802L57.884 78.8575C57.8966 78.8615 57.9092 78.8654 57.922 78.869C58.3978 79.0043 58.8823 79.0712 59.3639 79.0712C60.2455 79.0712 61.1174 78.8467 61.9087 78.4057C63.1323 77.724 64.0171 76.6065 64.4002 75.2591C64.4307 75.1515 64.4578 75.044 64.4813 74.9364L74.4533 72.1739C75.8935 71.682 77.7841 71.5047 78.6258 73.4433C79.4971 75.7193 77.2326 76.9713 76.644 77.2521Z" fill="#70908B"/>
<path d="M67.6877 37.4706C67.6704 37.3856 67.6452 37.3019 67.6106 37.2209C67.5774 37.1412 67.5376 37.0642 67.4884 36.9925C67.4406 36.9194 67.3848 36.8517 67.3238 36.7906C67.2627 36.7295 67.1949 36.6737 67.1219 36.6259C67.0502 36.5781 66.9731 36.5369 66.8934 36.5037C66.8124 36.4705 66.7287 36.4439 66.6451 36.428C66.4737 36.3935 66.2971 36.3935 66.1258 36.428C66.0408 36.4439 65.9571 36.4705 65.8774 36.5037C65.7964 36.5369 65.7194 36.5781 65.6477 36.6259C65.5746 36.6737 65.5069 36.7295 65.4458 36.7906C65.3847 36.8517 65.3289 36.9194 65.2811 36.9925C65.2333 37.0642 65.1921 37.1412 65.1589 37.2209C65.1257 37.3019 65.0991 37.3856 65.0832 37.4706C65.0659 37.5556 65.0566 37.6432 65.0566 37.7296C65.0566 37.8159 65.0659 37.9035 65.0832 37.9885C65.0991 38.0735 65.1257 38.1572 65.1589 38.2369C65.1921 38.3179 65.2333 38.395 65.2811 38.4667C65.3289 38.5397 65.3847 38.6075 65.4458 38.6685C65.5069 38.7296 65.5746 38.7854 65.6477 38.8332C65.7194 38.881 65.7964 38.9222 65.8774 38.9554C65.9571 38.9886 66.0408 39.0139 66.1258 39.0311C66.2108 39.0484 66.2984 39.0577 66.3848 39.0577C66.4711 39.0577 66.5587 39.0484 66.6451 39.0311C66.7287 39.0139 66.8124 38.9886 66.8934 38.9554C66.9731 38.9222 67.0502 38.881 67.1219 38.8332C67.1949 38.7854 67.2627 38.7296 67.3238 38.6685C67.3848 38.6075 67.4406 38.5397 67.4884 38.4667C67.5376 38.395 67.5774 38.3179 67.6106 38.2369C67.6452 38.1572 67.6704 38.0735 67.6877 37.9885C67.7049 37.9035 67.7129 37.8159 67.7129 37.7296C67.7129 37.6432 67.7049 37.5556 67.6877 37.4706Z" fill="#70908B"/>
<path d="M86.6719 24.5012H78.7753C78.0418 24.5012 77.4472 25.0958 77.4472 25.8294V26.9761H73.744C73.0104 26.9761 72.4158 27.5707 72.4158 28.3042V28.6864C70.2571 28.498 69.5471 28.0886 67.5646 26.9454C66.0399 26.0662 63.7355 24.7374 59.5855 22.8715C59.5662 22.8627 59.5468 22.8546 59.5271 22.8469C58.1762 22.3154 54.6358 21.2696 50.8545 22.9833L45.5102 24.8969L41.0053 20.3921C40.4867 19.8735 39.6457 19.8735 39.1271 20.3921L24.3373 35.1817C23.8589 35.6603 23.7672 36.49 24.3373 37.0601L49.6098 62.3326C50.0142 62.7372 50.9612 62.8595 51.4882 62.3326L64.9906 48.8304C65.3416 48.8606 65.7059 48.877 66.0835 48.877C69.5533 48.877 72.6226 46.4967 74.3785 43.9023H86.6719C87.4055 43.9023 88.0001 43.3077 88.0001 42.5742V25.8294C88.0001 25.0958 87.4055 24.5012 86.6719 24.5012ZM40.066 23.2095L43.0931 26.2366C42.1933 26.793 41.153 27.0908 40.066 27.0908C38.979 27.0908 37.9388 26.7932 37.039 26.2366L40.066 23.2095ZM30.1819 39.1481L27.1548 36.1209L30.1819 33.0938C30.7383 33.9936 31.0361 35.0339 31.0361 36.1209C31.0361 37.2078 30.7385 38.2481 30.1819 39.1481ZM50.5491 59.5151L47.5225 56.4886C49.3703 55.3483 51.7275 55.3483 53.5755 56.4886L50.5491 59.5151ZM55.489 54.5753C52.5541 52.4463 48.544 52.4463 45.6091 54.5753L32.0953 41.0614C33.1324 39.6349 33.6924 37.9215 33.6924 36.1209C33.6924 34.3201 33.1326 32.6068 32.0953 31.1804L35.1257 28.1501C36.5521 29.1873 38.2654 29.7472 40.0662 29.7472C41.867 29.7472 43.5803 29.1873 45.0067 28.1501L47.8793 31.0227C47.2594 31.1142 46.655 31.3185 46.0913 31.6326C45.1393 32.1631 44.3924 32.9574 43.9273 33.9184C42.4292 34.1959 41.0422 34.9212 39.9542 36.009C37.0024 38.9609 37.0025 43.7638 39.9543 46.7157C41.4302 48.1915 43.3688 48.9296 45.3076 48.9296C47.2463 48.9296 49.1851 48.1917 50.661 46.7157C51.6213 45.7555 52.2939 44.5753 52.6309 43.2892L57.1152 44.8111C56.6104 47.1496 57.1274 49.6098 58.5221 51.5423L55.489 54.5753ZM47.4143 41.5181C47.426 41.5223 47.4377 41.5266 47.4495 41.5306L50.1052 42.432C49.9047 43.3371 49.4508 44.1693 48.7828 44.8375C46.8666 46.7534 43.7487 46.7537 41.8327 44.8375C39.9165 42.9214 39.9165 39.8036 41.8327 37.8874C42.2949 37.4249 42.8404 37.0636 43.4347 36.8185C43.6799 38.8588 45.1489 40.6774 47.4143 41.5181ZM60.4358 49.6284C59.9231 48.793 59.633 47.8396 59.5872 46.8665C60.2234 47.3264 61.0009 47.777 61.9295 48.1347L60.4358 49.6284ZM72.4157 42.0447C71.1569 44.1083 68.7155 46.2205 66.0835 46.2205C65.591 46.2205 65.1295 46.1854 64.698 46.123C64.6962 46.1227 64.6945 46.1224 64.6928 46.1222C61.8246 45.7055 60.2817 44.0754 59.7732 43.4299C59.7461 43.3901 59.6306 43.2391 59.6135 43.214C59.4588 42.9375 59.2051 42.7151 58.8816 42.6053L48.3219 39.0214C46.6368 38.3889 45.746 36.9459 46.1543 35.5067C46.1546 35.5058 46.1548 35.5049 46.1551 35.504C46.1555 35.5029 46.1558 35.5017 46.156 35.5006C46.3458 34.8379 46.7817 34.2882 47.3841 33.9526C47.9826 33.6191 48.6744 33.5363 49.3342 33.7192L61.2333 37.4899C61.9327 37.7118 62.6791 37.3243 62.9006 36.625C63.1222 35.9258 62.735 35.1794 62.0357 34.9577L52.5722 31.9588L52.4896 31.8762C52.4888 31.8754 52.488 31.8745 52.4871 31.8737L47.5876 26.9742L51.7988 25.4662C51.813 25.4611 51.8306 25.4546 51.8446 25.4489C51.8482 25.4474 51.8551 25.4447 51.8586 25.4433C51.8767 25.436 51.8945 25.4283 51.9121 25.4202C54.7591 24.1117 57.4653 24.8949 58.526 25.3074C62.5347 27.1111 64.6743 28.3448 66.2375 29.2462C68.4109 30.4996 69.4581 31.1035 72.4157 31.3477V42.0447ZM77.4472 41.2458H75.0721V29.6323H77.4472V41.2458ZM85.3438 41.2458H80.1034V27.1575H85.3438V41.2458Z" fill="#70908B"/>
</g>
<defs>
<clipPath id="clip0_0_33">
<rect width="68" height="68" fill="white" transform="translate(20 20)"/>
</clipPath>
</defs>
</svg>
