<svg width="108" height="108" viewBox="0 0 108 108" fill="none" xmlns="http://www.w3.org/2000/svg">
<rect width="108" height="108" rx="24" fill="#FFF4E7"/>
<path d="M87.2543 34.7391L60.8157 20.2213C60.4185 20.0033 59.9368 20.0033 59.5396 20.2213L49.5743 25.6931C49.3641 25.7486 49.1678 25.8542 49.0052 26.006L33.1015 34.7391C32.6773 34.9716 32.4137 35.417 32.4137 35.9013V53.4597C29.7309 54.2987 27.2723 55.7784 25.2281 57.8231C19.8998 63.151 18.5413 71.2771 21.8477 78.0437C22.1688 78.7014 22.9627 78.9744 23.6205 78.6527C24.2788 78.3311 24.5512 77.5371 24.2301 76.8794C21.4209 71.13 22.5753 64.2256 27.103 59.698C29.9344 56.8666 33.6986 55.3071 37.7027 55.3071C41.7067 55.3071 45.4709 56.8666 48.3023 59.698C51.1333 62.5289 52.6927 66.2932 52.6927 70.2972C52.6927 74.3012 51.1333 78.0654 48.3018 80.8969C43.7742 85.4245 36.8698 86.5789 31.1205 83.7698C30.4627 83.4481 29.6687 83.7211 29.3476 84.3788C29.026 85.0371 29.2984 85.8311 29.9567 86.1522C32.4215 87.3568 35.0659 87.9421 37.6913 87.9421C42.2712 87.9416 46.79 86.1589 50.1772 82.7717C51.7304 81.2185 52.9579 79.4265 53.8264 77.4786L59.5396 80.6156C59.7385 80.7249 59.9581 80.7793 60.1777 80.7793C60.3973 80.7793 60.6174 80.7249 60.8157 80.6156L87.2543 66.0984C87.6785 65.8654 87.9421 65.42 87.9421 64.9362V55.722C87.9421 54.9896 87.3486 54.3961 86.6163 54.3961C85.8839 54.3961 85.2904 54.9896 85.2904 55.722V64.1516L61.5077 77.2109V51.2011L69.3567 46.891V53.7233C69.3567 54.1926 69.6043 54.6266 70.0077 54.8648C70.2159 54.9876 70.449 55.0492 70.6826 55.0492C70.9022 55.0492 71.1223 54.9948 71.3217 54.885L76.9872 51.7666C77.4108 51.5336 77.6734 51.0887 77.6734 50.6055V42.324L85.2904 38.1418V45.1155C85.2904 45.8479 85.8839 46.4414 86.6163 46.4414C87.3486 46.4414 87.9421 45.8479 87.9421 45.1155V35.9013C87.9421 35.4175 87.6785 34.9716 87.2543 34.7391ZM60.1777 22.8959L83.8615 35.9013L76.3905 40.0037L52.7067 26.9983L60.1777 22.8959ZM60.1777 48.9062L36.4938 35.9013L44.2388 31.6481L67.9231 44.653L60.1777 48.9062ZM70.6774 43.1407L46.9936 30.1358L49.9519 28.5111L73.6362 41.516L70.6774 43.1407ZM50.1772 57.8231C46.8449 54.4909 42.4147 52.6559 37.7027 52.6559C36.8113 52.6559 35.9309 52.7217 35.0654 52.8506V38.1418L58.8565 51.2057V77.2155L54.7271 74.9481C55.1337 73.4513 55.3439 71.8903 55.3439 70.2972C55.3439 65.5852 53.509 61.1549 50.1772 57.8231ZM75.0222 49.8219L72.0084 51.4807V45.4351L75.0222 43.7803V49.8219Z" fill="#70908B"/>
<path d="M86.6162 49.0863C86.2677 49.0863 85.9253 49.2282 85.6788 49.4747C85.4323 49.7213 85.2904 50.0631 85.2904 50.4122C85.2904 50.7607 85.4323 51.1026 85.6788 51.3491C85.9253 51.5961 86.2677 51.7375 86.6162 51.7375C86.9648 51.7375 87.3071 51.5961 87.5537 51.3491C87.8002 51.1026 87.9421 50.7607 87.9421 50.4122C87.9421 50.0631 87.8002 49.7213 87.5537 49.4747C87.3071 49.2282 86.9648 49.0863 86.6162 49.0863Z" fill="#70908B"/>
<path d="M33.2444 71.623C33.5837 71.623 33.9234 71.4935 34.1819 71.235C34.6998 70.7171 34.6998 69.8776 34.1819 69.3597L33.2636 68.4409H41.0997C43.0004 68.4409 44.5469 69.9874 44.5469 71.8881C44.5469 73.7889 43.0004 75.3354 41.0997 75.3354H36.4566C35.7242 75.3354 35.1307 75.9289 35.1307 76.6613C35.1307 77.3931 35.7242 77.9866 36.4566 77.9866H41.0997C44.4625 77.9866 47.1987 75.251 47.1987 71.8881C47.1987 68.5253 44.4625 65.7897 41.0997 65.7897H33.2636L34.1819 64.8709C34.6998 64.353 34.6998 63.5134 34.1819 62.9955C33.6645 62.4781 32.8249 62.4781 32.307 62.9955L29.1249 66.1776C28.6075 66.6955 28.6075 67.535 29.1249 68.053L32.307 71.2345C32.566 71.4935 32.9052 71.623 33.2444 71.623Z" fill="#70908B"/>
<path d="M26.1666 83.1622C25.7896 83.1622 25.4151 83.0016 25.1536 82.6904L25.151 82.6873C24.6797 82.1269 24.7522 81.291 25.3126 80.8197C25.8729 80.3478 26.7094 80.4203 27.1807 80.9807C27.6515 81.5416 27.5805 82.3791 27.0201 82.8504C26.771 83.0596 26.468 83.1622 26.1666 83.1622Z" fill="#70908B"/>
</svg>
